<svg width="3680" height="2842" viewBox="0 0 3680 2842" fill="none" xmlns="http://www.w3.org/2000/svg">
<rect width="3680" height="2842" rx="100" fill="#2B4E52"/>
<path d="M1415.75 523V313H1497.05C1518.45 313 1535.55 317.5 1548.35 326.5C1561.15 335.4 1567.55 348.65 1567.55 366.25C1567.55 372.65 1566.25 378.55 1563.65 383.95C1561.05 389.35 1557.5 394.15 1553 398.35C1548.6 402.45 1543.65 405.75 1538.15 408.25C1549.45 412.25 1558.55 418.9 1565.45 428.2C1572.45 437.5 1575.95 448.55 1575.95 461.35C1575.95 473.85 1572.8 484.7 1566.5 493.9C1560.3 503.1 1551.45 510.25 1539.95 515.35C1528.45 520.45 1514.8 523 1499 523H1415.75ZM1465.55 486.25H1491.8C1502.6 486.25 1510.7 484.05 1516.1 479.65C1521.5 475.25 1524.2 468.65 1524.2 459.85C1524.2 451.45 1521.6 444.95 1516.4 440.35C1511.3 435.65 1503.65 433.3 1493.45 433.3H1465.55V486.25ZM1465.55 399.1H1490.3C1496.3 399.1 1501.45 398.1 1505.75 396.1C1510.15 394.1 1513.5 391.2 1515.8 387.4C1518.2 383.6 1519.4 379.05 1519.4 373.75C1519.4 366.05 1516.8 360.1 1511.6 355.9C1506.5 351.7 1499.15 349.6 1489.55 349.6H1465.55V399.1ZM1591.76 523.45L1646.81 447.55L1594.61 370H1656.71L1681.16 413.8L1705.01 370H1765.76L1715.06 446.65L1769.51 523H1706.51L1679.51 479.8L1652.21 522.55L1591.76 523.45ZM1863.55 527.5C1846.85 527.5 1832.1 523.85 1819.3 516.55C1806.5 509.15 1796.45 499.3 1789.15 487C1781.95 474.7 1778.35 461.2 1778.35 446.5C1778.35 435.8 1780.4 425.6 1784.5 415.9C1788.7 406.1 1794.6 397.45 1802.2 389.95C1809.8 382.35 1818.8 376.4 1829.2 372.1C1839.6 367.7 1851.05 365.5 1863.55 365.5C1880.25 365.5 1895 369.2 1907.8 376.6C1920.6 383.9 1930.6 393.7 1937.8 406C1945 418.3 1948.6 431.8 1948.6 446.5C1948.6 457.2 1946.55 467.45 1942.45 477.25C1938.35 486.95 1932.5 495.55 1924.9 503.05C1917.3 510.55 1908.3 516.5 1897.9 520.9C1887.5 525.3 1876.05 527.5 1863.55 527.5ZM1863.55 485.2C1870.55 485.2 1876.85 483.65 1882.45 480.55C1888.05 477.35 1892.45 472.85 1895.65 467.05C1898.85 461.25 1900.45 454.4 1900.45 446.5C1900.45 438.5 1898.85 431.65 1895.65 425.95C1892.55 420.15 1888.2 415.7 1882.6 412.6C1877 409.4 1870.65 407.8 1863.55 407.8C1856.45 407.8 1850.1 409.4 1844.5 412.6C1838.9 415.7 1834.5 420.15 1831.3 425.95C1828.1 431.65 1826.5 438.5 1826.5 446.5C1826.5 454.4 1828.1 461.25 1831.3 467.05C1834.6 472.85 1839.05 477.35 1844.65 480.55C1850.25 483.65 1856.55 485.2 1863.55 485.2ZM2084.52 523V409H2040.57V419.5C2040.57 431.2 2039.57 442.5 2037.57 453.4C2035.57 464.2 2032.07 474.15 2027.07 483.25C2022.07 492.25 2015.17 499.9 2006.37 506.2C1997.67 512.5 1986.57 516.95 1973.07 519.55L1963.77 485.35C1972.67 483.35 1979.42 479.15 1984.02 472.75C1988.72 466.35 1991.87 458.5 1993.47 449.2C1995.07 439.9 1995.87 430 1995.87 419.5V370H2133.72V523H2084.52ZM1963.77 568V485.35L1989.42 487.15L1997.22 484H2164.32V568H2119.47V523H2008.62V568H1963.77Z" fill="white"/>
<rect x="411.5" y="998.5" width="2737" height="300" rx="92.5" stroke="#FAD201" stroke-width="15"/>
<path d="M536.3 1198.5L531.8 1190.4C535.15 1189.3 538.025 1187.92 540.425 1186.27C542.875 1184.57 544.95 1182.3 546.65 1179.45C548.35 1176.55 549.7 1172.77 550.7 1168.12C551.7 1163.42 552.425 1157.57 552.875 1150.57C553.325 1143.52 553.55 1135 553.55 1125V1092H621.2V1197H612.5V1100.1H562.25V1125C562.25 1136 561.925 1145.4 561.275 1153.2C560.675 1160.95 559.7 1167.45 558.35 1172.7C557.05 1177.9 555.375 1182.15 553.325 1185.45C551.275 1188.75 548.825 1191.4 545.975 1193.4C543.175 1195.4 539.95 1197.1 536.3 1198.5ZM680.081 1199.25C672.831 1199.25 666.331 1197.53 660.581 1194.07C654.881 1190.57 650.381 1185.92 647.081 1180.12C643.781 1174.32 642.131 1167.95 642.131 1161C642.131 1155.8 643.081 1150.9 644.981 1146.3C646.881 1141.65 649.531 1137.57 652.931 1134.07C656.381 1130.52 660.406 1127.75 665.006 1125.75C669.606 1123.75 674.631 1122.75 680.081 1122.75C687.331 1122.75 693.806 1124.5 699.506 1128C705.256 1131.45 709.781 1136.07 713.081 1141.87C716.381 1147.67 718.031 1154.05 718.031 1161C718.031 1166.2 717.081 1171.12 715.181 1175.77C713.281 1180.37 710.631 1184.45 707.231 1188C703.831 1191.5 699.806 1194.25 695.156 1196.25C690.556 1198.25 685.531 1199.25 680.081 1199.25ZM680.081 1191.15C685.731 1191.15 690.731 1189.92 695.081 1187.47C699.431 1184.97 702.831 1181.47 705.281 1176.97C707.781 1172.47 709.031 1167.15 709.031 1161C709.031 1154.85 707.781 1149.52 705.281 1145.02C702.831 1140.47 699.431 1136.97 695.081 1134.52C690.731 1132.07 685.731 1130.85 680.081 1130.85C674.431 1130.85 669.431 1132.07 665.081 1134.52C660.731 1136.97 657.306 1140.47 654.806 1145.02C652.356 1149.52 651.131 1154.85 651.131 1161C651.131 1167.15 652.356 1172.47 654.806 1176.97C657.306 1181.47 660.731 1184.97 665.081 1187.47C669.431 1189.92 674.431 1191.15 680.081 1191.15ZM736.771 1197V1125H781.921V1132.8H745.171V1197H736.771ZM799.027 1197V1125H807.427V1183.2L855.127 1125H861.877V1197H853.477V1138.2L805.327 1197H799.027ZM887.357 1197V1125H895.757V1154.7H940.907V1125H949.307V1197H940.907V1162.5H895.757V1197H887.357Z" fill="white" fill-opacity="0.7"/>
<rect x="411.5" y="1461.5" width="2737" height="300" rx="92.5" stroke="#FAD201" stroke-width="15"/>
<path d="M542 1660V1555H619.7V1660H611V1563.1H550.7V1660H542ZM667.141 1662.25C661.891 1662.25 657.391 1661.33 653.641 1659.47C649.891 1657.57 647.016 1654.95 645.016 1651.6C643.066 1648.2 642.091 1644.25 642.091 1639.75C642.091 1636.05 643.041 1632.65 644.941 1629.55C646.891 1626.4 649.991 1623.77 654.241 1621.67C658.491 1619.57 664.091 1618.17 671.041 1617.47C677.991 1616.77 686.491 1617 696.541 1618.15L696.991 1625.65C688.141 1624.55 680.716 1624.2 674.716 1624.6C668.766 1624.95 664.016 1625.85 660.466 1627.3C656.916 1628.7 654.366 1630.5 652.816 1632.7C651.266 1634.85 650.491 1637.2 650.491 1639.75C650.491 1644.25 652.066 1647.77 655.216 1650.32C658.366 1652.87 662.741 1654.15 668.341 1654.15C673.041 1654.15 677.241 1653.27 680.941 1651.52C684.691 1649.72 687.641 1647.3 689.791 1644.25C691.991 1641.15 693.091 1637.65 693.091 1633.75V1611.7C693.091 1607.85 692.241 1604.55 690.541 1601.8C688.841 1599 686.391 1596.85 683.191 1595.35C680.041 1593.85 676.241 1593.1 671.791 1593.1C667.991 1593.1 664.216 1593.67 660.466 1594.82C656.716 1595.97 652.991 1597.9 649.291 1600.6L646.216 1593.1C650.516 1590 654.891 1587.87 659.341 1586.72C663.791 1585.57 667.991 1585 671.941 1585C678.491 1585 683.941 1586.02 688.291 1588.07C692.691 1590.12 695.991 1593.15 698.191 1597.15C700.391 1601.1 701.491 1605.95 701.491 1611.7V1660H693.091V1650.55C690.491 1654.35 686.891 1657.25 682.291 1659.25C677.691 1661.25 672.641 1662.25 667.141 1662.25ZM726.078 1691.5V1588H734.478V1600.15C737.628 1596 741.578 1592.57 746.328 1589.87C751.078 1587.12 757.278 1585.75 764.928 1585.75C772.178 1585.75 778.528 1587.5 783.978 1591C789.478 1594.45 793.753 1599.07 796.803 1604.87C799.853 1610.67 801.378 1617.05 801.378 1624C801.378 1629.2 800.503 1634.12 798.753 1638.77C797.003 1643.37 794.503 1647.45 791.253 1651C788.053 1654.5 784.228 1657.25 779.778 1659.25C775.328 1661.25 770.378 1662.25 764.928 1662.25C757.828 1662.25 751.753 1660.88 746.703 1658.12C741.703 1655.37 737.628 1651.8 734.478 1647.4V1691.5H726.078ZM763.428 1654.15C769.078 1654.15 774.078 1652.92 778.428 1650.47C782.778 1647.97 786.178 1644.47 788.628 1639.97C791.128 1635.47 792.378 1630.15 792.378 1624C792.378 1617.85 791.128 1612.52 788.628 1608.02C786.178 1603.47 782.778 1599.97 778.428 1597.52C774.078 1595.07 769.078 1593.85 763.428 1593.85C757.778 1593.85 752.778 1595.07 748.428 1597.52C744.078 1599.97 740.653 1603.47 738.153 1608.02C735.703 1612.52 734.478 1617.85 734.478 1624C734.478 1630.15 735.703 1635.47 738.153 1639.97C740.653 1644.47 744.078 1647.97 748.428 1650.47C752.778 1652.92 757.778 1654.15 763.428 1654.15ZM852.054 1662.25C844.804 1662.25 838.304 1660.53 832.554 1657.07C826.854 1653.57 822.354 1648.92 819.054 1643.12C815.754 1637.32 814.104 1630.95 814.104 1624C814.104 1618.8 815.054 1613.9 816.954 1609.3C818.854 1604.65 821.504 1600.57 824.904 1597.07C828.354 1593.52 832.379 1590.75 836.979 1588.75C841.579 1586.75 846.604 1585.75 852.054 1585.75C859.304 1585.75 865.779 1587.5 871.479 1591C877.229 1594.45 881.754 1599.07 885.054 1604.87C888.354 1610.67 890.004 1617.05 890.004 1624C890.004 1629.2 889.054 1634.12 887.154 1638.77C885.254 1643.37 882.604 1647.45 879.204 1651C875.804 1654.5 871.779 1657.25 867.129 1659.25C862.529 1661.25 857.504 1662.25 852.054 1662.25ZM852.054 1654.15C857.704 1654.15 862.704 1652.92 867.054 1650.47C871.404 1647.97 874.804 1644.47 877.254 1639.97C879.754 1635.47 881.004 1630.15 881.004 1624C881.004 1617.85 879.754 1612.52 877.254 1608.02C874.804 1603.47 871.404 1599.97 867.054 1597.52C862.704 1595.07 857.704 1593.85 852.054 1593.85C846.404 1593.85 841.404 1595.07 837.054 1597.52C832.704 1599.97 829.279 1603.47 826.779 1608.02C824.329 1612.52 823.104 1617.85 823.104 1624C823.104 1630.15 824.329 1635.47 826.779 1639.97C829.279 1644.47 832.704 1647.97 837.054 1650.47C841.404 1652.92 846.404 1654.15 852.054 1654.15ZM903.344 1660.75L899.744 1652.65C904.844 1651.35 908.569 1649.17 910.919 1646.12C913.319 1643.02 914.844 1638.6 915.494 1632.85C916.194 1627.1 916.544 1619.55 916.544 1610.2V1588H969.794V1660H961.394V1595.8H924.944V1610.2C924.944 1618.3 924.644 1625.25 924.044 1631.05C923.494 1636.8 922.444 1641.62 920.894 1645.52C919.394 1649.42 917.219 1652.6 914.369 1655.05C911.569 1657.45 907.894 1659.35 903.344 1660.75ZM995.316 1660V1588H1003.72V1652.2H1021.87C1028.87 1652.2 1034.07 1650.97 1037.47 1648.52C1040.87 1646.02 1042.57 1642.2 1042.57 1637.05C1042.57 1631.95 1040.94 1628.1 1037.69 1625.5C1034.49 1622.9 1029.67 1621.6 1023.22 1621.6H1001.77V1613.8H1023.67C1032.32 1613.8 1039.12 1615.85 1044.07 1619.95C1049.07 1624 1051.57 1629.7 1051.57 1637.05C1051.57 1641.9 1050.32 1646.05 1047.82 1649.5C1045.37 1652.9 1041.92 1655.5 1037.47 1657.3C1033.07 1659.1 1027.97 1660 1022.17 1660H995.316Z" fill="white" fill-opacity="0.7"/>
<rect x="419" y="2170" width="2722" height="285" rx="85" fill="#FAD201" stroke="#FAD201" stroke-width="30"/>
<path d="M1570.65 2366V2261H1606.73C1616.78 2261 1624.9 2263.25 1631.1 2267.75C1637.3 2272.2 1640.4 2278.77 1640.4 2287.47C1640.4 2290.82 1639.6 2294 1638 2297C1636.45 2299.95 1634.43 2302.55 1631.93 2304.8C1629.43 2307.05 1626.83 2308.7 1624.13 2309.75C1629.83 2311.5 1634.58 2314.7 1638.38 2319.35C1642.23 2324 1644.15 2329.72 1644.15 2336.52C1644.15 2342.27 1642.7 2347.37 1639.8 2351.82C1636.9 2356.22 1632.78 2359.7 1627.43 2362.25C1622.08 2364.75 1615.73 2366 1608.38 2366H1570.65ZM1587.45 2352.8H1605.53C1612.73 2352.8 1618.08 2351.4 1621.58 2348.6C1625.08 2345.75 1626.83 2341.47 1626.83 2335.77C1626.83 2330.12 1625.05 2325.82 1621.5 2322.87C1618 2319.92 1612.58 2318.45 1605.23 2318.45H1587.45V2352.8ZM1587.45 2305.85H1604.1C1608.15 2305.85 1611.65 2305.2 1614.6 2303.9C1617.55 2302.6 1619.85 2300.72 1621.5 2298.27C1623.15 2295.82 1623.98 2292.87 1623.98 2289.42C1623.98 2284.52 1622.23 2280.77 1618.73 2278.17C1615.28 2275.52 1610.33 2274.2 1603.88 2274.2H1587.45V2305.85ZM1697.37 2368.25C1689.62 2368.25 1682.69 2366.48 1676.59 2362.92C1670.54 2359.32 1665.79 2354.55 1662.34 2348.6C1658.89 2342.6 1657.17 2336.02 1657.17 2328.87C1657.17 2323.57 1658.14 2318.57 1660.09 2313.87C1662.09 2309.12 1664.89 2304.92 1668.49 2301.27C1672.14 2297.62 1676.42 2294.75 1681.32 2292.65C1686.22 2290.55 1691.59 2289.5 1697.44 2289.5C1705.19 2289.5 1712.09 2291.3 1718.14 2294.9C1724.24 2298.45 1729.02 2303.22 1732.47 2309.22C1735.92 2315.17 1737.64 2321.72 1737.64 2328.87C1737.64 2334.12 1736.64 2339.12 1734.64 2343.87C1732.69 2348.62 1729.92 2352.82 1726.32 2356.47C1722.72 2360.12 1718.47 2363 1713.57 2365.1C1708.67 2367.2 1703.27 2368.25 1697.37 2368.25ZM1697.37 2353.62C1701.97 2353.62 1706.04 2352.62 1709.59 2350.62C1713.19 2348.57 1716.02 2345.7 1718.07 2342C1720.12 2338.3 1721.14 2333.92 1721.14 2328.87C1721.14 2323.82 1720.12 2319.45 1718.07 2315.75C1716.02 2312 1713.19 2309.12 1709.59 2307.12C1706.04 2305.12 1701.97 2304.12 1697.37 2304.12C1692.77 2304.12 1688.67 2305.12 1685.07 2307.12C1681.52 2309.12 1678.72 2312 1676.67 2315.75C1674.67 2319.45 1673.67 2323.82 1673.67 2328.87C1673.67 2333.92 1674.69 2338.3 1676.74 2342C1678.79 2345.7 1681.59 2348.57 1685.14 2350.62C1688.74 2352.62 1692.82 2353.62 1697.37 2353.62ZM1754.22 2366V2291.75H1770.19V2341.85L1810.47 2291.75H1824.87V2366H1808.97V2315.3L1768.32 2366H1754.22ZM1789.54 2279C1783.99 2279 1779.12 2277.85 1774.92 2275.55C1770.72 2273.25 1767.47 2270.07 1765.17 2266.02C1762.87 2261.97 1761.79 2257.32 1761.94 2252.07H1775.74C1775.54 2256.67 1776.69 2260.4 1779.19 2263.25C1781.74 2266.05 1785.19 2267.45 1789.54 2267.45C1793.89 2267.45 1797.32 2266.05 1799.82 2263.25C1802.32 2260.4 1803.44 2256.67 1803.19 2252.07H1817.07C1817.17 2257.27 1816.04 2261.9 1813.69 2265.95C1811.39 2270 1808.14 2273.2 1803.94 2275.55C1799.79 2277.85 1794.99 2279 1789.54 2279ZM1864.4 2366V2305.4H1840.02V2291.75H1905.35V2305.4H1880.9V2366H1864.4ZM1920.48 2366V2291.75H1936.45V2341.85L1976.73 2291.75H1991.13V2366H1975.23V2315.3L1934.58 2366H1920.48Z" fill="white"/>
</svg>
